# xmcd CD database file
# Copyright (C) 1993-1996 Ti Kan
#
# Track frame offsets:
# 182
# 11552
# 24682
# 36092
# 48380
# 58010
# 69690
# 81687
# 93237
# 110422
# 121892
# 132097
# 144237
# 155330
# 166645
# 177677
# 190735
# 203192
# 213830
# 227430
# 237765
# 252982
# 266415
# 278042
# 290185
# 302182
# 312462
# 328212
#
# Disc length: 4578 seconds
#
# Revision: 0
# Processed by: cddbd v1.4b41PL1 Copyright (c) Steve Scherf et al.
# Submitted via: inCDius 1.1b5
#
DISCID=9811e01c
DTITLE=Louvin Brothers - Country Classics
DYEAR=1900
DGENRE=
TTITLE0=Broadminded
TTITLE1=The Family Who Prays (Shall Never Part)
TTITLE2=When I Stop Dreaming
TTITLE3=Alabama
TTITLE4=I Don't Believe You've  Met My Baby
TTITLE5=Hoping That You're Hoping
TTITLE6=Kentucky
TTITLE7=Katie Dear
TTITLE8=Knoxville Girl
TTITLE9=Don't Laugh
TTITLE10=You're Running Wild 
TTITLE11=Cash On The Barrelhead
TTITLE12=Plenty Of Everything But You
TTITLE13=This Little Light Of Mine
TTITLE14=Tennessee Waltz
TTITLE15=Are You Teasing Me
TTITLE16=My Baby's Gone
TTITLE17=If I Could Only Win Your Love
TTITLE18=Satan Is Real
TTITLE19=The Christian Life
TTITLE20=Blues Stay Away From Me
TTITLE21=I Love You Best Of All
TTITLE22=How's The World Treating You ?
TTITLE23=The Great Atomic Power
TTITLE24=Must You Throw Dirt In My Face
TTITLE25=Stuck Up Blues
TTITLE26=Thank God For My Christian Home
TTITLE27=What Would You Give Me In Exchange For My Soul ?
EXTD=
EXTT0=
EXTT1=
EXTT2=
EXTT3=
EXTT4=
EXTT5=
EXTT6=
EXTT7=
EXTT8=
EXTT9=
EXTT10=
EXTT11=
EXTT12=
EXTT13=
EXTT14=
EXTT15=
EXTT16=
EXTT17=
EXTT18=
EXTT19=
EXTT20=
EXTT21=
EXTT22=
EXTT23=
EXTT24=
EXTT25=
EXTT26=
EXTT27=
PLAYORDER=
